<svg xmlns="http://www.w3.org/2000/svg" viewBox="0 0 244.73 92.41"><defs><style>.cls-1{fill:#3a3a3a;}.cls-2{fill:none;stroke:#43ff98;stroke-miterlimit:10;stroke-width:3px;}</style></defs><title>Asset 2</title><g id="Layer_2" data-name="Layer 2"><g id="Layer_1-2" data-name="Layer 1"><path class="cls-1" d="M171.72,45.15A50.18,50.18,0,0,0,149,2.92,1.41,1.41,0,0,1,150,.36c48.6,10.89,83.45,37.56,94.2,46.59a1.4,1.4,0,0,1,0,2.18c-10.64,8.42-47.27,34.75-98.41,43.26a1.41,1.41,0,0,1-.88-2.65A50.11,50.11,0,0,0,171.72,45.15Z"/><path class="cls-1" d="M163,46.29A40.18,40.18,0,1,1,122.82,6.12,40.17,40.17,0,0,1,163,46.29"/><polyline class="cls-2" points="149.22 62.15 122.82 16.43 96.42 62.15 149.22 62.15"/><path class="cls-1" d="M73,44.83A50.2,50.2,0,0,1,95.78,2.59,1.41,1.41,0,0,0,94.71,0C46.11,10.93,11.26,37.59.5,46.63a1.4,1.4,0,0,0,0,2.18C11.18,57.22,47.81,83.55,99,92.07a1.41,1.41,0,0,0,.88-2.65A50.11,50.11,0,0,1,73,44.83Z"/></g></g></svg>