<svg xmlns="http://www.w3.org/2000/svg" viewBox="0 0 242.5 103.28"><defs><style>.cls-1{fill:none;stroke:#353535;stroke-linecap:round;stroke-linejoin:round;stroke-width:5px;}.cls-2{fill:#353535;}</style></defs><title>Asset 1</title><g id="Layer_2" data-name="Layer 2"><g id="Layer_1-2" data-name="Layer 1"><path class="cls-1" d="M2.5,54.05s119.17,105.14,237.5,0C240,54.05,128.33-61.94,2.5,54.05Z"/><path class="cls-2" d="M121.25,12.28A39.25,39.25,0,1,0,160.5,51.53,39.25,39.25,0,0,0,121.25,12.28Zm20.95,54L140,68.72a.37.37,0,0,1-.53,0l-18-16.24a.37.37,0,0,0-.5,0L103,68.75a.37.37,0,0,1-.53,0l-2.17-2.41a.38.38,0,0,1,0-.53L118,49.87a.37.37,0,0,0,0-.56L100.32,33.4a.38.38,0,0,1,0-.53l2.17-2.41a.37.37,0,0,1,.53,0l18,16.24a.37.37,0,0,0,.5,0l18-16.24a.37.37,0,0,1,.53,0l2.17,2.41a.38.38,0,0,1,0,.53L124.55,49.31a.37.37,0,0,0,0,.56l17.63,15.91A.38.38,0,0,1,142.2,66.31Z"/></g></g></svg>