<svg xmlns="http://www.w3.org/2000/svg" viewBox="0 0 93.48 93.48"><defs><style>.cls-1{fill:#3a3a3a;}</style></defs><title>Asset 3</title><g id="Layer_2" data-name="Layer 2"><g id="Layer_1-2" data-name="Layer 1"><path class="cls-1" d="M93.48,39.3V54.18a4.14,4.14,0,0,1-4.14,4.14H62.46a4.15,4.15,0,0,0-4.14,4.14V89.34a4.14,4.14,0,0,1-4.14,4.14H39.3a4.14,4.14,0,0,1-4.14-4.14V62.46A4.15,4.15,0,0,0,31,58.32H4.14A4.14,4.14,0,0,1,0,54.18V39.3a4.14,4.14,0,0,1,4.14-4.14H31A4.15,4.15,0,0,0,35.16,31V4.14A4.14,4.14,0,0,1,39.3,0H54.18a4.14,4.14,0,0,1,4.14,4.14V31a4.15,4.15,0,0,0,4.14,4.14H89.34A4.14,4.14,0,0,1,93.48,39.3Z"/></g></g></svg>