<svg xmlns="http://www.w3.org/2000/svg" viewBox="0 0 308.25 484.55"><defs><style>.cls-1{fill:#fff;}.cls-1,.cls-3{stroke:#000;stroke-miterlimit:10;stroke-width:3px;}.cls-2{fill:#fff98f;}.cls-3{fill:none;}</style></defs><title>lampyellow</title><g id="Layer_2" data-name="Layer 2"><g id="Layer_1-2" data-name="Layer 1"><path class="cls-1" d="M306.64,330.56c0,.44,0,.89,0,1.33l-1-1.33Z"/><path class="cls-2" d="M306.63,331.89a152.5,152.5,0,0,1-305-1.05l.21-.28C47.55,268.39,79.69,192,91.63,115.79l125.12.27c11.86,76.44,43.07,152.15,88.9,214.5Z"/><path d="M305.13,331.89a151,151,0,0,1-301.58,10c-.2-2.74-.33-5.47-.38-8.22,0-1.48-.15-2.2.72-3.39C5,328.83,6,327.37,7.06,325.9q12-16.86,22.55-34.7a510.74,510.74,0,0,0,36.46-75.34A491.44,491.44,0,0,0,89.52,136q2-9.84,3.55-19.78l-1.44,1.11,42.36.09,67.41.14,15.35,0-1.45-1.11a490.73,490.73,0,0,0,22.78,89.36A500.25,500.25,0,0,0,277,289.63a464.18,464.18,0,0,0,28.31,43c1.14,1.53,3.75,0,2.59-1.51a476.33,476.33,0,0,1-47-78.26A498.84,498.84,0,0,1,228.81,166a488.08,488.08,0,0,1-10.62-50.33,1.5,1.5,0,0,0-1.44-1.1l-42.36-.1L107,114.32l-15.34,0a1.5,1.5,0,0,0-1.45,1.1,482.08,482.08,0,0,1-20.64,82.29,507.2,507.2,0,0,1-34.53,78Q24.8,294.28,13,312,7.15,320.78.93,329.29c-1.51,2-.75,5.55-.65,8q.18,4.21.6,8.42A153.83,153.83,0,0,0,20.4,407,155.52,155.52,0,0,0,62,454a153.48,153.48,0,0,0,57.74,26.74,155.62,155.62,0,0,0,66.11.58,153.3,153.3,0,0,0,58.47-25.89,153.74,153.74,0,0,0,62.8-107.14,157.18,157.18,0,0,0,1-16.36A1.5,1.5,0,0,0,305.13,331.89Z"/><path d="M218.25,116.06h0a1.27,1.27,0,0,0-.13-.58,1.21,1.21,0,0,0-.31-.49,1.32,1.32,0,0,0-.49-.31,1.11,1.11,0,0,0-.57-.12l-.4,0a1.45,1.45,0,0,0-.66.38l-.24.31a1.51,1.51,0,0,0-.2.76h0a1,1,0,0,0,.13.57,1.34,1.34,0,0,0,.79.8,1.27,1.27,0,0,0,.58.13l.4-.06a1.57,1.57,0,0,0,.66-.38l.23-.31a1.42,1.42,0,0,0,.21-.75Z"/><path d="M307.81,331h0l.23.3,0-.07-.29-.38a1.32,1.32,0,0,0-.49-.31,1.11,1.11,0,0,0-.57-.12,1.14,1.14,0,0,0-.58.12,1.21,1.21,0,0,0-.48.31l-.24.31a1.51,1.51,0,0,0-.2.76l.05.39a1.47,1.47,0,0,0,.39.67h0l-.24-.3.06.07c.09.13.19.25.29.38a1.11,1.11,0,0,0,.48.31,1.27,1.27,0,0,0,.58.13,1.22,1.22,0,0,0,.57-.13,1.21,1.21,0,0,0,.49-.31l.23-.31a1.42,1.42,0,0,0,.21-.75l-.06-.4a1.54,1.54,0,0,0-.38-.67Z"/><path d="M90.3,114.65l-.12.74a1.19,1.19,0,0,0,0,.59,1.12,1.12,0,0,0,.18.56,1.06,1.06,0,0,0,.39.42,1,1,0,0,0,.51.27l.4.06a1.51,1.51,0,0,0,.75-.21l.31-.23a1.54,1.54,0,0,0,.38-.67l.12-.74a1.08,1.08,0,0,0,0-.59,1.12,1.12,0,0,0-.18-.56,1,1,0,0,0-.38-.42,1.26,1.26,0,0,0-.51-.27l-.4,0a1.44,1.44,0,0,0-.76.2l-.3.23a1.47,1.47,0,0,0-.39.67Z"/><path class="cls-1" d="M91,93.1v.15L91,93.18A.3.3,0,0,1,91,93.1Z"/><path class="cls-1" d="M219.08,93.45l-.08.07v-.14Z"/><path class="cls-1" d="M219.08,93.45l-.08.07v-.14Z"/><path class="cls-3" d="M219.08,93.45l-.08-.07v.14l.08-.07c13.26,11.84-.44,22.61-.44,22.61h-1.89l-125.12-.27h-.24S77.68,105,91,93.18l.08.07V93.1a.3.3,0,0,0-.08.08c-1.1-.91-13.3-11.46.08-22.93,0,0-14-11,0-23,0,0-11.88-9.34-2.8-20.19H221.56C231.09,38,219,47.52,219,47.52c14,12,0,23,0,23C232.38,82,220.18,92.54,219.08,93.45Z"/><path class="cls-3" d="M221.56,27.05H88.24A23.87,23.87,0,0,1,91,24.25l55.6-15.19c6-17,13,0,13,0L219,24.52A23.63,23.63,0,0,1,221.56,27.05Z"/><path class="cls-1" d="M91,93.1v.15L91,93.18A.3.3,0,0,1,91,93.1Z"/><line class="cls-3" x1="88.24" y1="27.06" x2="88.14" y2="27.06"/><line class="cls-3" x1="222.25" y1="27.05" x2="221.56" y2="27.05"/><line class="cls-3" x1="90.75" y1="47.05" x2="218.75" y2="47.05"/><line class="cls-3" x1="218.75" y1="70.05" x2="90.75" y2="70.05"/><line class="cls-3" x1="90.75" y1="93.05" x2="218.75" y2="93.05"/></g></g></svg>