<svg xmlns="http://www.w3.org/2000/svg" viewBox="0 0 110.26 116"><defs><style>.cls-1{fill:#333;}</style></defs><title>notificationbell3</title><g id="Layer_2" data-name="Layer 2"><g id="Layer_1-2" data-name="Layer 1"><path class="cls-1" d="M110.26,92.18A3.7,3.7,0,0,1,109.13,95c-2,2-7,2-7,2h-94s-5,0-7-2A3.7,3.7,0,0,1,0,92.18a4.64,4.64,0,0,1,2.43-3.86l1.19-.69A29.26,29.26,0,0,0,17.47,64.19L18.13,53c0-34.17,19-39.88,24.5-40.82a11,11,0,0,0,4.22-1.58A11.87,11.87,0,0,0,48,9.77,6.27,6.27,0,0,0,50.13,5a4.85,4.85,0,0,1,.63-2.5,5.11,5.11,0,0,1,8.74,0A4.85,4.85,0,0,1,60.13,5,6.27,6.27,0,0,0,62.3,9.77a11.87,11.87,0,0,0,1.11.83,11,11,0,0,0,4.22,1.58c5.53.94,24.5,6.65,24.5,40.82l.66,11.19a29.26,29.26,0,0,0,13.85,23.44l1.19.69A4.64,4.64,0,0,1,110.26,92.18Z"/><path class="cls-1" d="M74.51,102a1.14,1.14,0,0,1,1,1.66,23,23,0,0,1-40.77,0,1.13,1.13,0,0,1,1-1.66Z"/></g></g></svg>