<svg xmlns="http://www.w3.org/2000/svg" viewBox="0 0 109.78 119.5"><defs><style>.cls-1{fill:#333;}</style></defs><title>notificationbell2</title><g id="Layer_2" data-name="Layer 2"><g id="Layer_1-2" data-name="Layer 1"><path class="cls-1" d="M108.89,95c-2,3-7,2-7,2h-94s-5,1-7-2a5.64,5.64,0,0,1,0-6c14-7,16-19,16-19l1-17c0-40,26-41,26-41,5-2,6-5,6-5V4a5.13,5.13,0,0,1,10,0V7s1,3,6,5c0,0,26,1,26,41l1,17s2,12,16,19A5.64,5.64,0,0,1,108.89,95Z"/><path class="cls-1" d="M71.89,109.5c-1,9-17,10-17,10s-16-1-17-10c0,0,0-7,7-7h20C71.89,102.5,71.89,109.5,71.89,109.5Z"/></g></g></svg>