<svg xmlns="http://www.w3.org/2000/svg" viewBox="0 0 16 16"><title>Asset 9</title><g id="Layer_2" data-name="Layer 2"><g id="Layer_1-2" data-name="Layer 1"><path d="M8,0a8,8,0,1,0,8,8A8,8,0,0,0,8,0Zm.33,12.4a.61.61,0,0,1-.48.17A.57.57,0,0,1,7.21,12a.64.64,0,0,1,.16-.45.62.62,0,0,1,.48-.18.62.62,0,0,1,.48.18.64.64,0,0,1,.16.45A.61.61,0,0,1,8.33,12.4ZM9.41,8.1l-.64.63a2,2,0,0,0-.43,1.37H7.26A3.5,3.5,0,0,1,7.41,9,2.92,2.92,0,0,1,8,8.1l.77-.79a1.76,1.76,0,0,0,.49-1.19,1.37,1.37,0,0,0-.32-1A1.24,1.24,0,0,0,8,4.81a1.41,1.41,0,0,0-1,.32A1.07,1.07,0,0,0,6.69,6H5.6a2,2,0,0,1,.68-1.54A2.56,2.56,0,0,1,8,3.86a2.38,2.38,0,0,1,1.73.6,2.13,2.13,0,0,1,.62,1.62A2.94,2.94,0,0,1,9.41,8.1Z"/></g></g></svg>