<svg xmlns="http://www.w3.org/2000/svg" viewBox="0 0 42 42"><defs><style>.cls-1{fill:#adadad;}</style></defs><title>questionmarkbetter</title><g id="Layer_2" data-name="Layer 2"><g id="Layer_1-2" data-name="Layer 1"><path class="cls-1" d="M21,0A21,21,0,1,0,42,21,21,21,0,0,0,21,0Zm1.33,37a2.33,2.33,0,0,1-1.83.65,2.19,2.19,0,0,1-2.44-2.33,2.43,2.43,0,0,1,.61-1.72,2.38,2.38,0,0,1,1.83-.68,2.38,2.38,0,0,1,1.83.68,2.43,2.43,0,0,1,.61,1.72A2.34,2.34,0,0,1,22.33,37Zm4.13-16.42L24,23a7.46,7.46,0,0,0-1.64,5.23H18.25a13.46,13.46,0,0,1,.57-4.2,11,11,0,0,1,2.29-3.44l2.94-3A6.74,6.74,0,0,0,25.92,13,5.25,5.25,0,0,0,24.7,9.34,4.71,4.71,0,0,0,21.11,8a5.4,5.4,0,0,0-3.67,1.22,4.11,4.11,0,0,0-1.37,3.25H11.91A7.65,7.65,0,0,1,14.5,6.59a9.81,9.81,0,0,1,6.61-2.22,9.13,9.13,0,0,1,6.61,2.29,8.17,8.17,0,0,1,2.36,6.19C30.08,15.48,28.86,18,26.46,20.56Z"/></g></g></svg>