<svg xmlns="http://www.w3.org/2000/svg" viewBox="0 0 66 41"><defs><style>.cls-1{fill:#1a1a1a;}</style></defs><title>social_twitter_square</title><g id="Layer_2" data-name="Layer 2"><g id="Layer_1-2" data-name="Layer 1"><path class="cls-1" d="M63.9,0H2.09A2.09,2.09,0,0,0,0,2.1V38.9A2.09,2.09,0,0,0,2.09,41H63.9A2.1,2.1,0,0,0,66,38.9V2.1A2.1,2.1,0,0,0,63.9,0ZM49.18,12.21c0,.35,0,.71,0,1.07,0,11-8.39,23.76-23.74,23.76a23.63,23.63,0,0,1-12.79-3.75,16,16,0,0,0,2,.12A16.82,16.82,0,0,0,25,29.83,8.36,8.36,0,0,1,17.22,24a7.86,7.86,0,0,0,1.56.15,8,8,0,0,0,2.2-.3,8.35,8.35,0,0,1-6.7-8.18v-.1a8.61,8.61,0,0,0,3.78,1A8.38,8.38,0,0,1,15.48,5.49a23.71,23.71,0,0,0,17.21,8.72,8.45,8.45,0,0,1-.22-1.9A8.36,8.36,0,0,1,46.92,6.6a16.74,16.74,0,0,0,5.3-2,8.38,8.38,0,0,1-3.67,4.61,16.21,16.21,0,0,0,4.79-1.32A17,17,0,0,1,49.18,12.21Z"/></g></g></svg>