<svg xmlns="http://www.w3.org/2000/svg" viewBox="0 0 66 41"><defs><style>.cls-1{fill:#1a1a1a;}</style></defs><title>social_fb_square</title><g id="Layer_2" data-name="Layer 2"><g id="Layer_1-2" data-name="Layer 1"><path class="cls-1" d="M63.9,0H2.09A2.1,2.1,0,0,0,0,2.1V38.91A2.09,2.09,0,0,0,2.09,41H63.9A2.09,2.09,0,0,0,66,38.91V2.1A2.1,2.1,0,0,0,63.9,0ZM41.1,10.08H38.17c-2.31,0-2.75,1.09-2.75,2.7v3.54h5.49l-.72,5.55H35.42V36.12H29.69V21.87h-4.8V16.32h4.8V12.23c0-4.75,2.9-7.34,7.13-7.34a41.1,41.1,0,0,1,4.28.22Z"/></g></g></svg>