<svg xmlns="http://www.w3.org/2000/svg" viewBox="0 0 66 41"><defs><style>.cls-1{fill:#1a1a1a;}</style></defs><title>social_telegram_square</title><g id="Layer_2" data-name="Layer 2"><g id="Layer_1-2" data-name="Layer 1"><path class="cls-1" d="M63.91,0H2.1A2.1,2.1,0,0,0,0,2.09V38.9A2.1,2.1,0,0,0,2.1,41H63.91A2.1,2.1,0,0,0,66,38.9V2.09A2.1,2.1,0,0,0,63.91,0ZM51.83,6.28c-1.24,5.83-4.55,22.08-5.92,28.49a1.81,1.81,0,0,1-1.14,1.32A1.89,1.89,0,0,1,43,35.87c-3.18-2.27-8.79-6.39-8.79-6.39l-4.87,4.6a1.36,1.36,0,0,1-2.22-.58C26,30,23.68,23.1,23.68,23.1s-4.88-1.55-8.6-2.66A1.29,1.29,0,0,1,15,18C23.29,14.92,43.58,7.3,50.17,4.86a1.28,1.28,0,0,1,1.25.22A1.23,1.23,0,0,1,51.83,6.28Z"/><path class="cls-1" d="M45,11,29,25.42l-.59,5.51-2.64-8.7L44.42,10.3a.43.43,0,0,1,.59.1A.43.43,0,0,1,45,11Z"/></g></g></svg>