<svg xmlns="http://www.w3.org/2000/svg" viewBox="0 0 63 63"><defs><style>.cls-1{fill:#1a1a1a;}</style></defs><title>social_vk_circle</title><g id="Layer_2" data-name="Layer 2"><g id="Layer_1-2" data-name="Layer 1"><path class="cls-1" d="M31.5,0A31.5,31.5,0,1,0,63,31.5,31.5,31.5,0,0,0,31.5,0ZM52.39,45h-5c-1.9,0-2.46-1.52-5.83-4.89-3-2.84-4.21-3.21-5-3.21-1,0-1.3.28-1.3,1.71v4.45c0,1.23-.39,1.94-3.55,1.94-5.26,0-11-3.2-15.16-9.1-6.16-8.64-7.84-15.17-7.84-16.48,0-.74.28-1.41,1.7-1.41h5c1.27,0,1.75.56,2.23,1.94C20.12,27,24.22,33.22,25.9,33.22c.63,0,.92-.3.92-1.9V24c-.18-3.37-2-3.65-2-4.84A1.2,1.2,0,0,1,26.11,18h7.81c1.06,0,1.41.57,1.41,1.83v9.85c0,1,.47,1.42.79,1.42.63,0,1.16-.37,2.31-1.53a41.25,41.25,0,0,0,6.11-10.16A2.15,2.15,0,0,1,46.71,18h5c1.5,0,1.81.78,1.5,1.83-.63,2.9-6.69,11.43-6.69,11.43-.53.84-.74,1.26,0,2.21.53.74,2.27,2.21,3.42,3.58,2.14,2.4,3.75,4.43,4.2,5.82S53.81,45,52.39,45Z"/></g></g></svg>