<svg xmlns="http://www.w3.org/2000/svg" viewBox="0 0 36.21 29.44"><defs><style>.cls-1{fill:#1a1a1a;}</style></defs><title>social_twitter_original</title><g id="Layer_2" data-name="Layer 2"><g id="Layer_1-2" data-name="Layer 1"><path class="cls-1" d="M32.51,7.34c0,.31,0,.64,0,1,0,9.82-7.47,21.14-21.13,21.14A21,21,0,0,1,0,26.1a12.75,12.75,0,0,0,1.77.11A15,15,0,0,0,11,23a7.46,7.46,0,0,1-6.93-5.16A7.81,7.81,0,0,0,5.45,18a7,7,0,0,0,2-.27,7.43,7.43,0,0,1-6-7.28v-.09a7.59,7.59,0,0,0,3.36.93,7.46,7.46,0,0,1-2.3-9.92A21.11,21.11,0,0,0,17.83,9.12a7.72,7.72,0,0,1-.19-1.68A7.44,7.44,0,0,1,30.5,2.35,14.9,14.9,0,0,0,35.22.55,7.52,7.52,0,0,1,32,4.66a14.64,14.64,0,0,0,4.26-1.18A14.93,14.93,0,0,1,32.51,7.34Z"/></g></g></svg>