<svg xmlns="http://www.w3.org/2000/svg" viewBox="0 0 60.52 60.52"><defs><style>.cls-1{fill:#1a1a1a;}</style></defs><title>social_twitter_circle</title><g id="Layer_2" data-name="Layer 2"><g id="Layer_1-2" data-name="Layer 1"><path class="cls-1" d="M30.26,0A30.26,30.26,0,1,0,60.52,30.26,30.26,30.26,0,0,0,30.26,0ZM45.51,24.16c0,.33,0,.66,0,1,0,10.08-7.67,21.7-21.7,21.7a21.6,21.6,0,0,1-11.69-3.43,15.6,15.6,0,0,0,1.82.11,15.28,15.28,0,0,0,9.47-3.27A7.63,7.63,0,0,1,16.31,35a6.74,6.74,0,0,0,1.43.14,7.39,7.39,0,0,0,2-.27,7.63,7.63,0,0,1-6.12-7.47v-.1a7.64,7.64,0,0,0,3.46.95A7.61,7.61,0,0,1,14.73,18a21.67,21.67,0,0,0,15.72,8,7.63,7.63,0,0,1,13-7,15.15,15.15,0,0,0,4.85-1.85,7.67,7.67,0,0,1-3.36,4.22,15,15,0,0,0,4.38-1.2A15.35,15.35,0,0,1,45.51,24.16Z"/></g></g></svg>