<svg xmlns="http://www.w3.org/2000/svg" viewBox="0 0 42.58 35.48"><defs><style>.cls-1{fill:#1a1a1a;fill-rule:evenodd;}</style></defs><title>social_telegram_original</title><g id="Layer_2" data-name="Layer 2"><g id="Layer_1-2" data-name="Layer 1"><path id="telegram-1" class="cls-1" d="M32.61,35.09a2.13,2.13,0,0,0,2,.25,2.05,2.05,0,0,0,1.28-1.49c1.54-7.24,5.28-25.58,6.68-32.17A1.37,1.37,0,0,0,42.08.34,1.42,1.42,0,0,0,40.67.09C33.23,2.84,10.32,11.44,1,14.9a1.47,1.47,0,0,0-1,1.42,1.45,1.45,0,0,0,1.05,1.35c4.2,1.26,9.71,3,9.71,3s2.58,7.78,3.92,11.73a1.54,1.54,0,0,0,1.07,1,1.52,1.52,0,0,0,1.44-.36l5.49-5.19S29,32.53,32.61,35.09ZM13.08,19.69l3,9.83.66-6.22L34.79,7a.49.49,0,0,0,.06-.67.51.51,0,0,0-.67-.11Z"/></g></g></svg>