<svg xmlns="http://www.w3.org/2000/svg" viewBox="0 0 45.44 26.99"><defs><style>.cls-1{fill:#1a1a1a;fill-rule:evenodd;}</style></defs><title>social_vk_original</title><g id="Layer_2" data-name="Layer 2"><g id="Layer_1-2" data-name="Layer 1"><path class="cls-1" d="M43.6,27h-5c-1.9,0-2.46-1.52-5.83-4.89-2.95-2.84-4.21-3.21-4.95-3.21-1,0-1.3.28-1.3,1.71v4.45c0,1.23-.39,1.94-3.55,1.94-5.26,0-11-3.2-15.16-9.1C1.68,9.25,0,2.72,0,1.41,0,.67.28,0,1.7,0h5C7.94,0,8.42.56,8.9,1.94,11.33,9,15.43,15.21,17.11,15.21c.63,0,.92-.3.92-1.9V6c-.18-3.37-2-3.65-2-4.84A1.2,1.2,0,0,1,17.32,0h7.81c1.06,0,1.41.57,1.41,1.83v9.85c0,1.05.47,1.42.79,1.42.63,0,1.16-.37,2.31-1.53A41.25,41.25,0,0,0,35.75,1.41,2.15,2.15,0,0,1,37.92,0h5c1.5,0,1.81.78,1.5,1.83-.63,2.9-6.69,11.43-6.69,11.43-.53.84-.74,1.26,0,2.21.53.74,2.27,2.21,3.42,3.58,2.14,2.4,3.75,4.43,4.2,5.82S45,27,43.6,27Z"/></g></g></svg>