<svg xmlns="http://www.w3.org/2000/svg" viewBox="0 0 66 41"><defs><style>.cls-1{fill:#1a1a1a;}</style></defs><title>social_vk_rectangle</title><g id="Layer_2" data-name="Layer 2"><g id="Layer_1-2" data-name="Layer 1"><path class="cls-1" d="M63.92,0H2.09A2.1,2.1,0,0,0,0,2.09V38.92A2.09,2.09,0,0,0,2.09,41H63.92A2.08,2.08,0,0,0,66,38.92V2.09A2.09,2.09,0,0,0,63.92,0Zm-10,34h-5c-1.9,0-2.46-1.52-5.83-4.89-3-2.84-4.21-3.21-5-3.21-1,0-1.3.28-1.3,1.71v4.45c0,1.23-.39,1.94-3.55,1.94-5.26,0-11-3.2-15.16-9.1C12,16.26,10.29,9.73,10.29,8.42c0-.74.28-1.41,1.7-1.41h5c1.27,0,1.75.56,2.23,1.94C21.62,16,25.72,22.22,27.4,22.22c.63,0,.92-.3.92-1.9V13c-.18-3.37-2-3.65-2-4.84A1.2,1.2,0,0,1,27.61,7h7.81c1.06,0,1.41.57,1.41,1.83v9.85c0,1,.47,1.42.79,1.42.63,0,1.16-.37,2.31-1.53A41.25,41.25,0,0,0,46,8.42,2.15,2.15,0,0,1,48.21,7h5c1.5,0,1.81.78,1.5,1.83C54.05,11.74,48,20.27,48,20.27c-.53.84-.74,1.26,0,2.21.53.74,2.27,2.21,3.42,3.58,2.14,2.4,3.75,4.43,4.2,5.82S55.31,34,53.89,34Z"/></g></g></svg>