<svg xmlns="http://www.w3.org/2000/svg" viewBox="0 0 63 63"><defs><style>.cls-1,.cls-2{fill:#1a1a1a;}.cls-2{fill-rule:evenodd;}</style></defs><title>social_telegram_circle</title><g id="Layer_2" data-name="Layer 2"><g id="Layer_1-2" data-name="Layer 1"><path class="cls-1" d="M31.5,0A31.5,31.5,0,1,0,63,31.5,31.5,31.5,0,0,0,31.5,0ZM51.85,16.13c-1.34,6.31-4.92,23.87-6.4,30.81a2,2,0,0,1-1.23,1.42,2,2,0,0,1-1.88-.24c-3.44-2.46-9.51-6.9-9.51-6.9l-5.26,5a1.43,1.43,0,0,1-1.37.35,1.49,1.49,0,0,1-1-1c-1.28-3.78-3.75-11.23-3.75-11.23s-5.28-1.68-9.3-2.88a1.4,1.4,0,0,1-1-1.3A1.42,1.42,0,0,1,12,28.79c9-3.32,30.91-11.55,38-14.19a1.35,1.35,0,0,1,1.35.24A1.3,1.3,0,0,1,51.85,16.13Z"/><path class="cls-2" d="M44.43,21.22,27.13,36.83l-.64,6-2.85-9.4,20.2-12.91a.49.49,0,0,1,.64.11A.47.47,0,0,1,44.43,21.22Z"/></g></g></svg>